<svg width="106" height="40" viewBox="0 0 106 40" fill="none" xmlns="http://www.w3.org/2000/svg">
<path d="M12.6875 2.80469H8.20312V15H4.9082V2.80469H0.410156V0.302734H12.6875V2.80469ZM21.7788 15.2598C20.6485 15.2598 19.6186 15.082 18.6889 14.7266C17.7592 14.362 16.9617 13.8516 16.2963 13.1953C15.6401 12.5391 15.1297 11.7552 14.7651 10.8438C14.4005 9.93229 14.2182 8.92969 14.2182 7.83594C14.2182 6.69661 14.3959 5.65299 14.7514 4.70508C15.116 3.74805 15.6355 2.92773 16.31 2.24414C16.9845 1.55143 17.8048 1.01367 18.7709 0.630859C19.7371 0.248047 20.8308 0.0566406 22.0522 0.0566406C23.1824 0.0566406 24.2032 0.24349 25.1147 0.617188C26.0261 0.990885 26.8054 1.51042 27.4526 2.17578C28.0997 2.84115 28.5965 3.62956 28.9428 4.54102C29.2983 5.44336 29.476 6.43229 29.476 7.50781C29.476 8.69271 29.2892 9.76367 28.9155 10.7207C28.5418 11.6777 28.0131 12.4935 27.3295 13.168C26.6551 13.8333 25.8439 14.3483 24.8959 14.7129C23.9571 15.0775 22.9181 15.2598 21.7788 15.2598ZM21.9291 2.55859C21.2638 2.55859 20.6668 2.68164 20.1381 2.92773C19.6095 3.17383 19.1629 3.52018 18.7983 3.9668C18.4337 4.41341 18.1511 4.95117 17.9506 5.58008C17.7592 6.20898 17.6635 6.90625 17.6635 7.67188C17.6635 8.44661 17.7547 9.14844 17.937 9.77734C18.1284 10.3971 18.4018 10.9303 18.7573 11.377C19.1127 11.8145 19.5457 12.1562 20.0561 12.4023C20.5756 12.6393 21.159 12.7578 21.8061 12.7578C22.4897 12.7578 23.0958 12.6439 23.6245 12.416C24.1531 12.1882 24.5952 11.86 24.9506 11.4316C25.3061 10.9941 25.575 10.4655 25.7573 9.8457C25.9396 9.2168 26.0307 8.50586 26.0307 7.71289C26.0307 6.90169 25.9441 6.17708 25.7709 5.53906C25.5978 4.90104 25.338 4.36328 24.9916 3.92578C24.6544 3.47917 24.226 3.14193 23.7065 2.91406C23.1961 2.67708 22.6036 2.55859 21.9291 2.55859ZM44.6376 10.6934C44.6376 11.3496 44.5009 11.9421 44.2274 12.4707C43.954 12.9993 43.5712 13.4551 43.079 13.8379C42.5868 14.2116 41.9943 14.4987 41.3016 14.6992C40.6089 14.8997 39.8479 15 39.0184 15H33.3856V0.302734H38.7997C40.4859 0.302734 41.7574 0.603516 42.6141 1.20508C43.48 1.80664 43.913 2.64062 43.913 3.70703C43.913 4.52734 43.6532 5.23372 43.1337 5.82617C42.6233 6.41862 41.885 6.84701 40.9188 7.11133V7.15234C41.5204 7.21615 42.0536 7.35286 42.5184 7.5625C42.9833 7.76302 43.3707 8.01823 43.6805 8.32812C43.9996 8.63802 44.2365 8.99805 44.3915 9.4082C44.5555 9.80924 44.6376 10.2376 44.6376 10.6934ZM40.4677 4.18555C40.4677 3.55664 40.2671 3.13281 39.8661 2.91406C39.4651 2.6862 38.8361 2.57227 37.9794 2.57227H36.6805V6.27734H37.9384C38.7587 6.27734 39.383 6.10417 39.8114 5.75781C40.2489 5.41146 40.4677 4.88737 40.4677 4.18555ZM41.2059 10.666C41.2059 9.93685 40.9598 9.40365 40.4677 9.06641C39.9846 8.72917 39.2463 8.56055 38.2528 8.56055H36.6805V12.7305H38.4442C39.3374 12.7305 40.021 12.571 40.495 12.252C40.969 11.9329 41.2059 11.4043 41.2059 10.666ZM61.303 15H57.7484L56.5179 11.582H50.9808L49.805 15H46.2503L51.9515 0.302734H55.6429L61.303 15ZM55.7659 9.2168L54.139 4.55469C54.057 4.31771 53.9795 4.0625 53.9066 3.78906C53.8336 3.50651 53.7881 3.25586 53.7698 3.03711H53.7015C53.6741 3.24674 53.624 3.48828 53.5511 3.76172C53.4873 4.02604 53.4098 4.29948 53.3187 4.58203L51.7738 9.2168H55.7659ZM75.1931 4.86914C75.1931 5.59831 75.0473 6.26823 74.7556 6.87891C74.4731 7.48958 74.072 8.01367 73.5525 8.45117C73.033 8.88867 72.4041 9.23047 71.6658 9.47656C70.9275 9.71354 70.1072 9.83203 69.2048 9.83203H67.4959V15H64.2009V0.302734H69.3279C71.2511 0.302734 72.7094 0.694661 73.7029 1.47852C74.6964 2.25326 75.1931 3.38346 75.1931 4.86914ZM71.7478 4.96484C71.7478 4.14453 71.5108 3.55208 71.0369 3.1875C70.572 2.8138 69.8611 2.62695 68.9041 2.62695H67.4959V7.52148H68.7947C69.7608 7.52148 70.4946 7.31185 70.9959 6.89258C71.4972 6.47331 71.7478 5.83073 71.7478 4.96484ZM78.9797 15V0.302734H82.2609V6.16797H84.8723C85.7108 6.16797 86.4628 6.26823 87.1281 6.46875C87.7935 6.66927 88.354 6.95638 88.8098 7.33008C89.2746 7.69466 89.6255 8.13672 89.8625 8.65625C90.1086 9.17578 90.2316 9.75911 90.2316 10.4062C90.2316 11.1081 90.0995 11.7415 89.8352 12.3066C89.58 12.8717 89.2108 13.3548 88.7277 13.7559C88.2447 14.1569 87.6568 14.4668 86.9641 14.6855C86.2714 14.8952 85.4921 15 84.6262 15H78.9797ZM82.2609 8.42383V12.7441H84.175C85.1411 12.7441 85.8749 12.5755 86.3762 12.2383C86.8775 11.901 87.1281 11.3451 87.1281 10.5703C87.1281 9.80469 86.8866 9.25781 86.4035 8.92969C85.9204 8.59245 85.1958 8.42383 84.2297 8.42383H82.2609ZM95.509 15H92.2277V0.302734H95.509V15ZM2.26953 24.3027H5.31836V32.6152C5.31836 33.1257 5.30924 33.5632 5.29102 33.9277C5.27279 34.2832 5.25 34.5566 5.22266 34.748H5.26367C5.35482 34.5931 5.46419 34.4108 5.5918 34.2012C5.72852 33.9915 5.91992 33.7181 6.16602 33.3809L12.7012 24.3027H16.2148V39H13.166V30.5371C13.166 30.0176 13.1706 29.571 13.1797 29.1973C13.1979 28.8145 13.2207 28.5182 13.248 28.3086H13.1934C13.1204 28.4635 13.002 28.6732 12.8379 28.9375C12.6738 29.2018 12.4733 29.4935 12.2363 29.8125L5.57812 39H2.26953V24.3027ZM40.0028 26.8047H35.5184V39H32.2235V26.8047H27.7255V24.3027H40.0028V26.8047ZM49.0941 39.2598C47.9639 39.2598 46.9339 39.082 46.0042 38.7266C45.0745 38.362 44.277 37.8516 43.6116 37.1953C42.9554 36.5391 42.445 35.7552 42.0804 34.8438C41.7158 33.9323 41.5335 32.9297 41.5335 31.8359C41.5335 30.6966 41.7113 29.653 42.0667 28.7051C42.4313 27.748 42.9508 26.9277 43.6253 26.2441C44.2998 25.5514 45.1201 25.0137 46.0863 24.6309C47.0524 24.248 48.1461 24.0566 49.3675 24.0566C50.4977 24.0566 51.5185 24.2435 52.43 24.6172C53.3415 24.9909 54.1208 25.5104 54.7679 26.1758C55.415 26.8411 55.9118 27.6296 56.2581 28.541C56.6136 29.4434 56.7913 30.4323 56.7913 31.5078C56.7913 32.6927 56.6045 33.7637 56.2308 34.7207C55.8571 35.6777 55.3284 36.4935 54.6448 37.168C53.9704 37.8333 53.1592 38.3483 52.2113 38.7129C51.2724 39.0775 50.2334 39.2598 49.0941 39.2598ZM49.2445 26.5586C48.5791 26.5586 47.9821 26.6816 47.4534 26.9277C46.9248 27.1738 46.4782 27.5202 46.1136 27.9668C45.749 28.4134 45.4665 28.9512 45.2659 29.5801C45.0745 30.209 44.9788 30.9062 44.9788 31.6719C44.9788 32.4466 45.07 33.1484 45.2523 33.7773C45.4437 34.3971 45.7171 34.9303 46.0726 35.377C46.428 35.8145 46.861 36.1562 47.3714 36.4023C47.8909 36.6393 48.4743 36.7578 49.1214 36.7578C49.805 36.7578 50.4111 36.6439 50.9398 36.416C51.4684 36.1882 51.9105 35.86 52.2659 35.4316C52.6214 34.9941 52.8903 34.4655 53.0726 33.8457C53.2549 33.2168 53.346 32.5059 53.346 31.7129C53.346 30.9017 53.2594 30.1771 53.0863 29.5391C52.9131 28.901 52.6533 28.3633 52.307 27.9258C51.9697 27.4792 51.5413 27.1419 51.0218 26.9141C50.5114 26.6771 49.9189 26.5586 49.2445 26.5586ZM72.4724 39H69.1912V32.916C68.4438 33.2897 67.7009 33.5814 66.9627 33.791C66.2335 34.0007 65.4633 34.1055 64.6521 34.1055C63.212 34.1055 62.1091 33.75 61.3435 33.0391C60.587 32.3281 60.2088 31.2663 60.2088 29.8535V24.3027H63.49V29.4297C63.49 30.2044 63.6586 30.7741 63.9959 31.1387C64.3422 31.4941 64.8845 31.6719 65.6228 31.6719C66.197 31.6719 66.7758 31.5853 67.3591 31.4121C67.9516 31.2389 68.5623 30.9837 69.1912 30.6465V24.3027H72.4724V39ZM90.0676 39H86.1574L81.4406 32.6016C81.3768 32.5195 81.2948 32.401 81.1945 32.2461C81.0943 32.0911 81.0077 31.9362 80.9348 31.7812H80.8801V39H77.5852V24.3027H80.8801V31.2344H80.9348C80.9803 31.1432 81.0533 31.0202 81.1535 30.8652C81.2538 30.7103 81.354 30.5645 81.4543 30.4277L85.9387 24.3027H89.5891L84.216 31.3438L90.0676 39ZM105.749 39H102.194L100.964 35.582H95.4264L94.2506 39H90.6959L96.3971 24.3027H100.089L105.749 39ZM100.212 33.2168L98.5846 28.5547C98.5026 28.3177 98.4251 28.0625 98.3522 27.7891C98.2793 27.5065 98.2337 27.2559 98.2155 27.0371H98.1471C98.1198 27.2467 98.0696 27.4883 97.9967 27.7617C97.9329 28.026 97.8554 28.2995 97.7643 28.582L96.2194 33.2168H100.212Z" fill="white"/>
</svg>
